<svg width="50" height="50" viewBox="0 0 50 50" fill="none" xmlns="http://www.w3.org/2000/svg">
<path d="M13.7094 36.8031L33.7625 8.15625C33.8772 7.98133 34.0258 7.83122 34.1996 7.71481C34.3734 7.5984 34.5687 7.51806 34.7741 7.47856C34.9795 7.43906 35.1907 7.44119 35.3953 7.48484C35.5998 7.52849 35.7936 7.61277 35.9649 7.73267C36.1363 7.85257 36.2819 8.00566 36.393 8.18286C36.5041 8.36006 36.5785 8.55777 36.6118 8.76426C36.6451 8.97075 36.6366 9.18183 36.5868 9.38497C36.537 9.58811 36.4469 9.77919 36.3219 9.94687L15.3438 39.9156C15.2238 40.0876 15.0704 40.2337 14.8928 40.3451C14.7152 40.4566 14.517 40.5312 14.31 40.5644C14.1029 40.5977 13.8913 40.5889 13.6877 40.5386C13.4842 40.4884 13.2928 40.3977 13.125 40.2719L1.87501 31.8344C1.71085 31.7113 1.57256 31.557 1.46802 31.3805C1.36347 31.2039 1.29473 31.0085 1.26571 30.8053C1.20711 30.3951 1.31387 29.9784 1.56251 29.6469C1.81115 29.3154 2.1813 29.0962 2.59154 29.0376C3.00177 28.979 3.41849 29.0857 3.75001 29.3344L13.7094 36.8031ZM35.9375 21.875C35.5231 21.875 35.1257 21.7104 34.8327 21.4174C34.5396 21.1243 34.375 20.7269 34.375 20.3125C34.375 19.8981 34.5396 19.5007 34.8327 19.2076C35.1257 18.9146 35.5231 18.75 35.9375 18.75H45.3125C45.7269 18.75 46.1243 18.9146 46.4174 19.2076C46.7104 19.5007 46.875 19.8981 46.875 20.3125C46.875 20.7269 46.7104 21.1243 46.4174 21.4174C46.1243 21.7104 45.7269 21.875 45.3125 21.875H35.9375ZM29.6875 31.25C29.2731 31.25 28.8757 31.0854 28.5827 30.7924C28.2896 30.4993 28.125 30.1019 28.125 29.6875C28.125 29.2731 28.2896 28.8757 28.5827 28.5826C28.8757 28.2896 29.2731 28.125 29.6875 28.125H45.3094C45.7238 28.125 46.1212 28.2896 46.4142 28.5826C46.7073 28.8757 46.8719 29.2731 46.8719 29.6875C46.8719 30.1019 46.7073 30.4993 46.4142 30.7924C46.1212 31.0854 45.7238 31.25 45.3094 31.25H29.6875ZM23.4375 40.625C23.0231 40.625 22.6257 40.4604 22.3327 40.1674C22.0396 39.8743 21.875 39.4769 21.875 39.0625C21.875 38.6481 22.0396 38.2507 22.3327 37.9576C22.6257 37.6646 23.0231 37.5 23.4375 37.5H45.3094C45.7238 37.5 46.1212 37.6646 46.4142 37.9576C46.7073 38.2507 46.8719 38.6481 46.8719 39.0625C46.8719 39.4769 46.7073 39.8743 46.4142 40.1674C46.1212 40.4604 45.7238 40.625 45.3094 40.625H23.4375Z" fill="#545454"/>
</svg>
