<?xml version="1.0" encoding="UTF-8"?>
<svg xmlns="http://www.w3.org/2000/svg" xmlns:xlink="http://www.w3.org/1999/xlink" width="80px" height="80px" viewBox="0 0 80 80" version="1.1">
<defs>
<clipPath id="clip1">
  <path d="M 17 18 L 44 18 L 44 51 L 17 51 Z M 17 18 "/>
</clipPath>
<clipPath id="clip2">
  <path d="M 61.863281 32.882812 C 61.863281 17.085938 51.96875 4.285156 39.761719 4.285156 C 27.558594 4.285156 17.664062 17.085938 17.664062 32.882812 C 17.664062 48.675781 27.558594 61.480469 39.761719 61.480469 C 51.96875 61.480469 61.863281 48.675781 61.863281 32.882812 Z M 61.863281 32.882812 "/>
</clipPath>
<clipPath id="clip3">
  <path d="M 32 16 L 62 16 L 62 49 L 32 49 Z M 32 16 "/>
</clipPath>
<clipPath id="clip4">
  <path d="M 61.863281 32.882812 C 61.863281 17.085938 51.96875 4.285156 39.761719 4.285156 C 27.558594 4.285156 17.664062 17.085938 17.664062 32.882812 C 17.664062 48.675781 27.558594 61.480469 39.761719 61.480469 C 51.96875 61.480469 61.863281 48.675781 61.863281 32.882812 Z M 61.863281 32.882812 "/>
</clipPath>
<clipPath id="clip5">
  <path d="M 35 28 L 46 28 L 46 35 L 35 35 Z M 35 28 "/>
</clipPath>
<clipPath id="clip6">
  <path d="M 61.863281 32.882812 C 61.863281 17.085938 51.96875 4.285156 39.761719 4.285156 C 27.558594 4.285156 17.664062 17.085938 17.664062 32.882812 C 17.664062 48.675781 27.558594 61.480469 39.761719 61.480469 C 51.96875 61.480469 61.863281 48.675781 61.863281 32.882812 Z M 61.863281 32.882812 "/>
</clipPath>
<clipPath id="clip7">
  <path d="M 36 32 L 47 32 L 47 39 L 36 39 Z M 36 32 "/>
</clipPath>
<clipPath id="clip8">
  <path d="M 61.863281 32.882812 C 61.863281 17.085938 51.96875 4.285156 39.761719 4.285156 C 27.558594 4.285156 17.664062 17.085938 17.664062 32.882812 C 17.664062 48.675781 27.558594 61.480469 39.761719 61.480469 C 51.96875 61.480469 61.863281 48.675781 61.863281 32.882812 Z M 61.863281 32.882812 "/>
</clipPath>
<clipPath id="clip9">
  <path d="M 37 37 L 49 37 L 49 44 L 37 44 Z M 37 37 "/>
</clipPath>
<clipPath id="clip10">
  <path d="M 61.863281 32.882812 C 61.863281 17.085938 51.96875 4.285156 39.761719 4.285156 C 27.558594 4.285156 17.664062 17.085938 17.664062 32.882812 C 17.664062 48.675781 27.558594 61.480469 39.761719 61.480469 C 51.96875 61.480469 61.863281 48.675781 61.863281 32.882812 Z M 61.863281 32.882812 "/>
</clipPath>
<clipPath id="clip11">
  <path d="M 36 32 L 47 32 L 47 39 L 36 39 Z M 36 32 "/>
</clipPath>
<clipPath id="clip12">
  <path d="M 61.863281 32.882812 C 61.863281 17.085938 51.96875 4.285156 39.761719 4.285156 C 27.558594 4.285156 17.664062 17.085938 17.664062 32.882812 C 17.664062 48.675781 27.558594 61.480469 39.761719 61.480469 C 51.96875 61.480469 61.863281 48.675781 61.863281 32.882812 Z M 61.863281 32.882812 "/>
</clipPath>
<clipPath id="clip13">
  <path d="M 37 37 L 49 37 L 49 44 L 37 44 Z M 37 37 "/>
</clipPath>
<clipPath id="clip14">
  <path d="M 61.863281 32.882812 C 61.863281 17.085938 51.96875 4.285156 39.761719 4.285156 C 27.558594 4.285156 17.664062 17.085938 17.664062 32.882812 C 17.664062 48.675781 27.558594 61.480469 39.761719 61.480469 C 51.96875 61.480469 61.863281 48.675781 61.863281 32.882812 Z M 61.863281 32.882812 "/>
</clipPath>
<clipPath id="clip15">
  <path d="M 40 21 L 49 21 L 49 27 L 40 27 Z M 40 21 "/>
</clipPath>
<clipPath id="clip16">
  <path d="M 61.863281 32.882812 C 61.863281 17.085938 51.96875 4.285156 39.761719 4.285156 C 27.558594 4.285156 17.664062 17.085938 17.664062 32.882812 C 17.664062 48.675781 27.558594 61.480469 39.761719 61.480469 C 51.96875 61.480469 61.863281 48.675781 61.863281 32.882812 Z M 61.863281 32.882812 "/>
</clipPath>
</defs>
<g id="surface1">
<g clip-path="url(#clip1)" clip-rule="nonzero">
<g clip-path="url(#clip2)" clip-rule="nonzero">
<path style=" stroke:none;fill-rule:nonzero;fill:rgb(92.156863%,82.352942%,43.137255%);fill-opacity:1;" d="M 41.289062 50.515625 C 41.015625 50.515625 40.738281 50.453125 40.464844 50.332031 L 17.800781 40.023438 L 23.171875 20.242188 L 33.898438 18.496094 L 39.382812 20.992188 L 39.160156 21.722656 C 39.007812 22.222656 39 22.769531 39.136719 23.273438 C 39.285156 23.835938 39.597656 24.285156 40.011719 24.539062 C 40.421875 24.796875 40.886719 24.828125 41.320312 24.632812 C 41.320312 24.632812 41.710938 26.0625 41.710938 26.0625 C 41.710938 26.0625 41.710938 26.0625 41.707031 26.0625 L 34.542969 29.320312 C 33.859375 29.632812 33.496094 30.613281 33.738281 31.5 C 33.855469 31.929688 34.09375 32.277344 34.410156 32.472656 C 34.726562 32.671875 35.085938 32.695312 35.417969 32.546875 L 35.808594 33.976562 C 35.476562 34.128906 35.207031 34.4375 35.054688 34.851562 C 34.902344 35.261719 34.882812 35.726562 35 36.15625 C 35.117188 36.585938 35.355469 36.933594 35.671875 37.128906 C 35.992188 37.328125 36.351562 37.351562 36.683594 37.199219 L 37.070312 38.632812 C 36.386719 38.945312 36.023438 39.921875 36.261719 40.808594 C 36.503906 41.699219 37.261719 42.167969 37.949219 41.855469 L 38.335938 43.289062 C 38.003906 43.4375 37.738281 43.75 37.582031 44.160156 C 37.429688 44.574219 37.410156 45.035156 37.527344 45.464844 C 37.644531 45.898438 37.882812 46.242188 38.203125 46.441406 C 38.519531 46.636719 38.878906 46.664062 39.210938 46.511719 L 42.945312 44.816406 L 43.203125 45.222656 C 43.761719 46.089844 43.929688 47.292969 43.640625 48.351562 C 43.28125 49.679688 42.316406 50.511719 41.285156 50.511719 Z M 39.105469 48.101562 L 40.855469 48.898438 C 41.542969 49.210938 42.296875 48.742188 42.539062 47.855469 C 42.648438 47.445312 42.636719 47.011719 42.507812 46.628906 L 39.601562 47.949219 C 39.4375 48.023438 39.273438 48.074219 39.105469 48.105469 Z M 19.296875 39.097656 L 36.972656 47.132812 C 36.730469 46.808594 36.542969 46.414062 36.425781 45.972656 C 36.203125 45.160156 36.242188 44.285156 36.527344 43.507812 C 36.5625 43.425781 36.59375 43.34375 36.628906 43.265625 C 35.964844 42.9375 35.414062 42.25 35.160156 41.316406 C 34.90625 40.386719 35.007812 39.402344 35.367188 38.609375 C 35.300781 38.578125 35.234375 38.539062 35.167969 38.5 C 34.570312 38.128906 34.117188 37.472656 33.894531 36.660156 C 33.675781 35.847656 33.710938 34.972656 34 34.195312 C 34.03125 34.109375 34.066406 34.03125 34.101562 33.953125 C 34.035156 33.917969 33.96875 33.882812 33.90625 33.84375 C 33.304688 33.46875 32.851562 32.816406 32.632812 32.003906 C 32.175781 30.328125 32.859375 28.480469 34.15625 27.890625 L 35.644531 27.214844 L 32.152344 25.625 L 32.539062 24.191406 L 37.414062 26.410156 L 39.128906 25.628906 C 38.621094 25.183594 38.238281 24.542969 38.027344 23.777344 C 37.867188 23.179688 37.828125 22.542969 37.90625 21.925781 L 33.769531 20.046875 L 33.601562 20.074219 L 24.039062 21.628906 Z M 19.296875 39.097656 "/>
</g>
</g>
<g clip-path="url(#clip3)" clip-rule="nonzero">
<g clip-path="url(#clip4)" clip-rule="nonzero">
<path style=" stroke:none;fill-rule:nonzero;fill:rgb(92.156863%,82.352942%,43.137255%);fill-opacity:1;" d="M 38.773438 48.132812 C 38.40625 48.132812 38.039062 48.023438 37.699219 47.8125 C 37.097656 47.441406 36.644531 46.785156 36.425781 45.972656 C 36.203125 45.160156 36.242188 44.285156 36.527344 43.507812 C 36.5625 43.425781 36.59375 43.34375 36.628906 43.265625 C 35.964844 42.9375 35.414062 42.25 35.160156 41.316406 C 34.90625 40.386719 35.007812 39.402344 35.367188 38.609375 C 35.300781 38.578125 35.234375 38.539062 35.167969 38.5 C 34.570312 38.128906 34.117188 37.472656 33.894531 36.660156 C 33.640625 35.726562 33.742188 34.746094 34.101562 33.953125 C 34.035156 33.921875 33.972656 33.882812 33.90625 33.84375 C 33.304688 33.472656 32.855469 32.816406 32.632812 32.007812 C 32.410156 31.195312 32.449219 30.316406 32.738281 29.539062 C 33.023438 28.761719 33.527344 28.179688 34.15625 27.890625 L 39.128906 25.628906 C 38.621094 25.183594 38.238281 24.542969 38.027344 23.777344 C 37.5 21.835938 38.292969 19.695312 39.796875 19.011719 L 46.167969 16.113281 L 46.613281 16.1875 L 56.894531 17.859375 L 62.265625 37.640625 L 39.601562 47.949219 C 39.332031 48.070312 39.050781 48.132812 38.773438 48.132812 Z M 38.339844 43.292969 C 38.007812 43.445312 37.738281 43.753906 37.585938 44.164062 C 37.433594 44.578125 37.414062 45.039062 37.53125 45.46875 C 37.648438 45.902344 37.886719 46.246094 38.203125 46.445312 C 38.523438 46.644531 38.882812 46.667969 39.214844 46.519531 L 60.769531 36.714844 L 56.027344 19.25 L 46.296875 17.664062 L 40.1875 20.445312 C 39.292969 20.851562 38.820312 22.121094 39.136719 23.273438 C 39.289062 23.835938 39.597656 24.285156 40.011719 24.539062 C 40.425781 24.796875 40.890625 24.828125 41.324219 24.632812 L 41.710938 26.0625 L 34.546875 29.320312 C 34.210938 29.472656 33.945312 29.78125 33.792969 30.195312 C 33.640625 30.605469 33.621094 31.070312 33.738281 31.5 C 33.855469 31.929688 34.09375 32.277344 34.410156 32.472656 C 34.730469 32.671875 35.085938 32.695312 35.421875 32.546875 L 35.808594 33.976562 C 35.476562 34.128906 35.210938 34.4375 35.058594 34.851562 C 34.90625 35.261719 34.886719 35.726562 35.003906 36.15625 C 35.121094 36.585938 35.359375 36.933594 35.675781 37.128906 C 35.992188 37.328125 36.351562 37.351562 36.683594 37.199219 L 37.074219 38.632812 C 36.386719 38.945312 36.023438 39.921875 36.265625 40.808594 C 36.507812 41.699219 37.261719 42.167969 37.949219 41.855469 L 38.339844 43.289062 Z M 38.339844 43.292969 "/>
</g>
</g>
<g clip-path="url(#clip5)" clip-rule="nonzero">
<g clip-path="url(#clip6)" clip-rule="nonzero">
<path style=" stroke:none;fill-rule:nonzero;fill:rgb(92.156863%,82.352942%,43.137255%);fill-opacity:1;" d="M 35.617188 34.023438 C 35.375 34.023438 35.148438 33.828125 35.0625 33.515625 C 34.957031 33.121094 35.117188 32.6875 35.421875 32.546875 L 44.742188 28.308594 C 45.046875 28.171875 45.382812 28.378906 45.492188 28.773438 C 45.597656 29.167969 45.4375 29.601562 45.132812 29.738281 L 35.808594 33.980469 C 35.746094 34.007812 35.679688 34.023438 35.617188 34.023438 Z M 35.617188 34.023438 "/>
<path style=" stroke:none;fill-rule:nonzero;fill:rgb(92.156863%,82.352942%,43.137255%);fill-opacity:1;" d="M 35.617188 34.023438 C 35.375 34.023438 35.148438 33.828125 35.0625 33.515625 C 34.957031 33.121094 35.117188 32.6875 35.421875 32.546875 L 44.742188 28.308594 C 45.046875 28.171875 45.382812 28.378906 45.492188 28.773438 C 45.597656 29.167969 45.4375 29.601562 45.132812 29.738281 L 35.808594 33.980469 C 35.746094 34.007812 35.679688 34.023438 35.617188 34.023438 Z M 35.617188 34.023438 "/>
</g>
</g>
<g clip-path="url(#clip7)" clip-rule="nonzero">
<g clip-path="url(#clip8)" clip-rule="nonzero">
<path style=" stroke:none;fill-rule:nonzero;fill:rgb(92.156863%,82.352942%,43.137255%);fill-opacity:1;" d="M 36.878906 38.679688 C 36.636719 38.679688 36.414062 38.484375 36.328125 38.171875 C 36.21875 37.777344 36.378906 37.34375 36.6875 37.203125 L 46.007812 32.964844 C 46.3125 32.824219 46.648438 33.035156 46.753906 33.429688 C 46.863281 33.824219 46.703125 34.257812 46.398438 34.394531 L 37.074219 38.636719 C 37.011719 38.664062 36.945312 38.679688 36.878906 38.679688 Z M 36.878906 38.679688 "/>
</g>
</g>
<g clip-path="url(#clip9)" clip-rule="nonzero">
<g clip-path="url(#clip10)" clip-rule="nonzero">
<path style=" stroke:none;fill-rule:nonzero;fill:rgb(92.156863%,82.352942%,43.137255%);fill-opacity:1;" d="M 38.144531 43.335938 C 37.902344 43.335938 37.675781 43.140625 37.59375 42.828125 C 37.484375 42.433594 37.644531 42 37.949219 41.863281 L 47.273438 37.621094 C 47.578125 37.484375 47.914062 37.691406 48.019531 38.085938 C 48.128906 38.480469 47.964844 38.914062 47.660156 39.054688 L 38.339844 43.292969 C 38.273438 43.320312 38.210938 43.335938 38.144531 43.335938 Z M 38.144531 43.335938 "/>
</g>
</g>
<g clip-path="url(#clip11)" clip-rule="nonzero">
<g clip-path="url(#clip12)" clip-rule="nonzero">
<path style=" stroke:none;fill-rule:nonzero;fill:rgb(92.156863%,82.352942%,43.137255%);fill-opacity:1;" d="M 36.878906 38.679688 C 36.636719 38.679688 36.414062 38.484375 36.328125 38.171875 C 36.21875 37.777344 36.378906 37.34375 36.6875 37.203125 L 46.007812 32.964844 C 46.3125 32.824219 46.648438 33.035156 46.753906 33.429688 C 46.863281 33.824219 46.703125 34.257812 46.398438 34.394531 L 37.074219 38.636719 C 37.011719 38.664062 36.945312 38.679688 36.878906 38.679688 Z M 36.878906 38.679688 "/>
</g>
</g>
<g clip-path="url(#clip13)" clip-rule="nonzero">
<g clip-path="url(#clip14)" clip-rule="nonzero">
<path style=" stroke:none;fill-rule:nonzero;fill:rgb(92.156863%,82.352942%,43.137255%);fill-opacity:1;" d="M 38.144531 43.335938 C 37.902344 43.335938 37.675781 43.140625 37.59375 42.828125 C 37.484375 42.433594 37.644531 42 37.949219 41.863281 L 47.273438 37.621094 C 47.578125 37.484375 47.914062 37.691406 48.019531 38.085938 C 48.128906 38.480469 47.964844 38.914062 47.660156 39.054688 L 38.339844 43.292969 C 38.273438 43.320312 38.210938 43.335938 38.144531 43.335938 Z M 38.144531 43.335938 "/>
</g>
</g>
<g clip-path="url(#clip15)" clip-rule="nonzero">
<g clip-path="url(#clip16)" clip-rule="nonzero">
<path style=" stroke:none;fill-rule:nonzero;fill:rgb(92.156863%,82.352942%,43.137255%);fill-opacity:1;" d="M 41.519531 26.105469 C 41.277344 26.105469 41.050781 25.914062 40.964844 25.601562 C 40.859375 25.207031 41.019531 24.769531 41.324219 24.632812 L 47.527344 21.808594 C 47.835938 21.671875 48.167969 21.878906 48.277344 22.273438 C 48.382812 22.667969 48.222656 23.101562 47.917969 23.242188 L 41.710938 26.0625 C 41.648438 26.09375 41.582031 26.105469 41.519531 26.105469 Z M 41.519531 26.105469 "/>
</g>
</g>
<path style=" stroke:none;fill-rule:nonzero;fill:rgb(90.980393%,93.725491%,100%);fill-opacity:1;" d="M 39.761719 12.105469 C 44.050781 12.105469 48.082031 14.269531 51.113281 18.191406 C 54.144531 22.117188 55.816406 27.332031 55.816406 32.882812 C 55.816406 38.429688 54.144531 43.648438 51.113281 47.574219 C 48.082031 51.496094 44.050781 53.65625 39.761719 53.65625 C 35.476562 53.65625 31.445312 51.496094 28.410156 47.574219 C 25.378906 43.648438 23.710938 38.429688 23.710938 32.882812 C 23.710938 27.332031 25.378906 22.117188 28.410156 18.191406 C 31.445312 14.269531 35.476562 12.105469 39.761719 12.105469 M 39.761719 4.285156 C 27.558594 4.285156 17.664062 17.085938 17.664062 32.882812 C 17.664062 48.675781 27.558594 61.480469 39.761719 61.480469 C 51.96875 61.480469 61.863281 48.675781 61.863281 32.882812 C 61.863281 17.085938 51.96875 4.285156 39.761719 4.285156 Z M 39.761719 4.285156 "/>
<path style=" stroke:none;fill-rule:nonzero;fill:rgb(90.980393%,93.725491%,100%);fill-opacity:1;" d="M 45.742188 60.15625 L 53.597656 54.289062 L 60.566406 69.910156 L 52.714844 75.78125 Z M 45.742188 60.15625 "/>
</g>
</svg>
