<svg width="40" height="40" viewBox="0 0 40 40" fill="none" xmlns="http://www.w3.org/2000/svg">
<path d="M2.5 17.5C2.49713 13.845 3.82883 10.3148 6.24498 7.57233C8.66112 4.82988 11.9954 3.06395 15.6216 2.60627C19.2478 2.14858 22.9164 3.03062 25.9382 5.08671C28.96 7.1428 31.1271 10.2315 32.0325 13.7725C31.0894 13.3354 30.0997 13.0066 29.0825 12.7925C28.4388 11.1926 27.4711 9.74304 26.2402 8.53508C25.0093 7.32711 23.5418 6.38681 21.93 5.77327C20.3183 5.15973 18.597 4.88621 16.8744 4.96991C15.1519 5.0536 13.4652 5.4927 11.9205 6.25961C10.3758 7.02651 9.00643 8.10464 7.89844 9.42625C6.79046 10.7479 5.96782 12.2844 5.48223 13.9392C4.99664 15.594 4.85859 17.3314 5.07677 19.0421C5.29494 20.7529 5.86462 22.4 6.75 23.88C6.83709 24.0264 6.89332 24.1891 6.91525 24.3581C6.93718 24.527 6.92433 24.6987 6.8775 24.8625L5.60501 29.3125L9.75 27.9325C9.92604 27.8738 10.1129 27.855 10.2972 27.8774C10.4814 27.8999 10.6583 27.9631 10.815 28.0625C11.4417 28.4625 12.1017 28.8025 12.795 29.0825C13.0117 30.1158 13.3383 31.0992 13.775 32.0325C12.4496 31.6924 11.177 31.1726 9.9925 30.4875L4.1475 32.4375C3.93156 32.5096 3.70003 32.5214 3.47789 32.4715C3.25576 32.4216 3.05145 32.3121 2.88704 32.1546C2.72262 31.9971 2.60433 31.7977 2.54493 31.578C2.48554 31.3582 2.48729 31.1264 2.55 30.9075L4.33 24.68C3.12918 22.4774 2.49999 20.0087 2.5 17.5ZM26.25 15C27.7274 15 29.1903 15.291 30.5552 15.8564C31.9201 16.4217 33.1603 17.2504 34.205 18.2951C35.2496 19.3397 36.0783 20.5799 36.6437 21.9448C37.209 23.3097 37.5 24.7726 37.5 26.25C37.5 27.7274 37.209 29.1903 36.6437 30.5552C36.0783 31.9201 35.2496 33.1603 34.205 34.205C33.1603 35.2496 31.9201 36.0783 30.5552 36.6437C29.1903 37.209 27.7274 37.5 26.25 37.5C23.2663 37.5 20.4048 36.3147 18.2951 34.205C16.1853 32.0952 15 29.2337 15 26.25C15 23.2663 16.1853 20.4048 18.2951 18.2951C20.4048 16.1853 23.2663 15 26.25 15ZM24.01 30.99L21.7675 28.75H25.625C26.5278 28.75 27.4218 28.5722 28.256 28.2267C29.0901 27.8812 29.848 27.3748 30.4864 26.7364C31.1248 26.098 31.6312 25.3401 31.9767 24.506C32.3222 23.6718 32.5 22.7778 32.5 21.875V21.25C32.5 20.9185 32.3683 20.6005 32.1339 20.3661C31.8995 20.1317 31.5815 20 31.25 20C30.9185 20 30.6005 20.1317 30.3661 20.3661C30.1317 20.6005 30 20.9185 30 21.25V21.875C30 23.0353 29.5391 24.1481 28.7186 24.9686C27.8981 25.7891 26.7853 26.25 25.625 26.25H21.7675L24.01 24.01C24.1262 23.8938 24.2184 23.7558 24.2813 23.604C24.3442 23.4521 24.3766 23.2894 24.3766 23.125C24.3766 22.9607 24.3442 22.7979 24.2813 22.6461C24.2184 22.4942 24.1262 22.3562 24.01 22.24C23.8938 22.1238 23.7558 22.0316 23.604 21.9687C23.4521 21.9058 23.2894 21.8734 23.125 21.8734C22.9606 21.8734 22.7979 21.9058 22.646 21.9687C22.4942 22.0316 22.3562 22.1238 22.24 22.24L17.86 26.625C17.6279 26.8599 17.4981 27.1771 17.499 27.5073C17.4999 27.8375 17.6315 28.154 17.865 28.3875L22.24 32.7625C22.4747 32.9972 22.7931 33.1291 23.125 33.1291C23.4569 33.1291 23.7753 32.9972 24.01 32.7625C24.2447 32.5278 24.3766 32.2095 24.3766 31.8775C24.3766 31.5456 24.2447 31.2272 24.01 30.9925" fill="#323232"/>
</svg>
